<?xml version="1.0" encoding="UTF-8" standalone="no"?>
<svg
   height="24px"
   viewBox="0 -960 960 960"
   width="24px"
   fill="#e3e3e3"
   version="1.1"
   id="svg4"
   sodipodi:docname="cinemixer.svg"
   inkscape:version="1.2 (dc2aedaf03, 2022-05-15)"
   xmlns:inkscape="http://www.inkscape.org/namespaces/inkscape"
   xmlns:sodipodi="http://sodipodi.sourceforge.net/DTD/sodipodi-0.dtd"
   xmlns="http://www.w3.org/2000/svg"
   xmlns:svg="http://www.w3.org/2000/svg">
  <defs
     id="defs8" />
  <sodipodi:namedview
     id="namedview6"
     pagecolor="#505050"
     bordercolor="#eeeeee"
     borderopacity="1"
     inkscape:showpageshadow="0"
     inkscape:pageopacity="0"
     inkscape:pagecheckerboard="0"
     inkscape:deskcolor="#505050"
     showgrid="false"
     showguides="false"
     inkscape:zoom="16"
     inkscape:cx="5.53125"
     inkscape:cy="23.25"
     inkscape:window-width="1920"
     inkscape:window-height="1027"
     inkscape:window-x="1912"
     inkscape:window-y="-8"
     inkscape:window-maximized="1"
     inkscape:current-layer="svg4" />
  <path
     id="path1252"
     style="display:inline"
     d="m 657.96875,-687.30715 v 0.0781 l 25,49.92187 c 4.66667,9.33333 11.33337,16.69794 20,22.03126 8.66663,5.3333 17.96879,7.96874 27.96875,7.96874 19.99991,0 35.34903,-8.46882 46.01562,-25.46874 10.66663,-16.99995 11.36455,-34.50008 2.03126,-52.5 l -1.01563,-1.95313 v -0.0781 z" />
  <path
     id="path1248"
     style="display:inline"
     d="m 457.96875,-687.30715 v 0.0781 l 25,49.92187 c 4.66667,9.33333 11.33338,16.69794 20,22.03126 8.66663,5.3333 17.96879,7.96874 27.96875,7.96874 19.99992,0 35.34904,-8.46882 46.01562,-25.46874 10.66663,-16.99995 11.36455,-34.50008 2.03126,-52.5 l -1.01563,-1.95313 v -0.0781 z" />
  <path
     id="path1244"
     style="display:inline"
     d="m 257.96875,-687.30715 v 0.0781 l 25,49.92187 c 4.66667,9.33333 11.33337,16.69794 20,22.03126 8.66663,5.3333 17.96879,7.96874 27.96875,7.96874 19.99991,0 35.34903,-8.46882 46.01562,-25.46874 10.66663,-16.99995 11.36455,-34.50008 2.03126,-52.5 l -1.01563,-1.95313 v -0.0781 z" />
  <path
     id="path1240"
     style="display:inline"
     d="M 137.96875,-767.32 80,-767.30715 c -21.999911,0.005 -40.817769,7.84904 -56.484375,23.51563 C 7.8490178,-728.12491 0,-709.30705 0,-687.30715 v 160 c 0,21.99992 7.8490178,40.81777 23.515625,56.48438 15.666606,15.66659 34.484463,23.51562 56.484375,23.51562 h 57.96875 v 166.01563 c -21.99992,17.99994 -39.849007,40.28656 -53.515625,66.95313 -13.666618,26.66655 -20.46875,55.69805 -20.46875,87.03124 v 40.000004 c 0,21.999926 7.849023,40.817762 23.515625,56.48438 15.6666,15.666593 34.48446,23.5156074 56.48438,23.5156254 H 880 c 21.99992,1.8e-5 40.81775,-7.8490324 56.48438,-23.5156254 C 952.15097,-46.489384 960,-65.30722 960,-87.307146 v -40.000004 c 0,-31.33319 -6.80212,-60.36469 -20.46875,-87.03124 -13.66663,-26.66657 -31.51571,-48.95319 -53.51563,-66.95313 v -405.9375 h -73.98437 v 359.92187 H 213.98438 V -767.32 h -76.01563 v 240.01285 H 76.015625 l 3.984375,-160 57.96,-0.0129 z m 375,560.01285 c 11.33328,0 20.84893,3.81773 28.51563,11.48438 7.66668,7.66665 11.48437,17.18233 11.48437,28.51562 0,11.33331 -3.81769,20.84898 -11.48437,28.51563 -7.6667,7.66665 -17.18235,11.48437 -28.51563,11.48437 -11.33328,10e-6 -20.77082,-3.81772 -28.4375,-11.48437 -7.66668,-7.66665 -11.5625,-17.18232 -11.5625,-28.51563 0,-11.33329 3.89582,-20.84897 11.5625,-28.51562 7.66668,-7.66665 17.10422,-11.48438 28.4375,-11.48438 z"
     sodipodi:nodetypes="cssssssccssssccssssccccccccccccsssssssss" />
  <g
     id="g1266"
     transform="rotate(-15,201.37324,-775.6548)">
    <path
       id="path2"
       style="display:inline"
       d="m 457.96875,-703.98438 -40,-80 h -80 l 40,80 z" />
    <path
       id="path1256"
       style="display:inline"
       d="m 657.96875,-703.98438 -40,-80 h -80 l 40,80 z" />
    <path
       id="path1254"
       style="display:inline"
       d="m 812.03125,-703.90625 h 73.98437 v -34.0625 c -0.0312,-11.84369 -1.19795,-22.69796 -9.53124,-32.03125 -8.33333,-9.33331 -18.4688,-13.98438 -30.46876,-13.98438 H 737.96875 l 40,80 h 34.0625 z" />
    <path
       id="path1238"
       style="display:inline"
       d="m 137.96875,-783.98438 v 80 0.0781 h 76.01563 v -0.0781 h 43.98437 l -40,-80 z" />
  </g>
  <path
     id="path361"
     d="m 165.44947,-921.21359 c -10.6667,0 -22.50338,13.47064 -22.5,22.51279 l 0.02,53.4688 h 737.01 l -0.02,-53.4688 c -0.004,-10.59349 -11.8333,-22.51279 -22.5,-22.51279 z"
     sodipodi:nodetypes="ssccsss"
     style="display:none" />
  <path
     d="m 217.98003,-840 64.99999,130 c 4.66667,9.33334 11.33333,16.66667 20,22 8.66667,5.33334 18,8 28,8 19.99999,0 35.33332,-8.5 45.99999,-25.5 10.66667,-17 11.33333,-34.5 2,-52.5 l -41,-82 H 417.98 l 65,130 c 4.66667,9.33334 11.33333,16.66667 19.99999,22 8.66667,5.33334 18,8 28,8 20,0 35.33333,-8.5 45.99999,-25.5 10.66667,-17 11.33333,-34.5 2,-52.5 l -40.99999,-82 h 79.99999 l 64.99999,130 c 4.66667,9.33334 11.33333,16.66667 20,22 8.66667,5.33334 18,8 28,8 19.99999,0 35.33332,-8.5 45.99999,-25.5 10.66667,-17 11.33333,-34.5 2,-52.5 l -41,-82 h 68.02005 c 22,0 40.83333,7.83334 56.49999,23.5 15.66667,15.66667 23.5,34.5 23.5,56.5 v 480 c 0,22 -7.83333,40.83334 -23.5,56.5 -15.66666,15.66667 -34.49999,23.5 -56.49999,23.5 H 217.98003 c -22,0 -40.83333,-7.83333 -56.49999,-23.5 -15.66667,-15.66666 -23.5,-34.5 -23.5,-56.5 v -480 c 0,-22 7.83333,-40.83333 23.5,-56.5 15.66666,-15.66666 34.49999,-23.5 56.49999,-23.5 z M 214,-600 v 320 h 598 v -320 z m 0,0 v 320 z"
     id="path264"
     style="display:none;stroke-width:1"
     sodipodi:nodetypes="csssscccsssscccssssccsssssssssssccccccccc" />
  <path
     d="M 513.02,-326.79347 479.26776,-293.03592 418.58,-353.72368 V -404.36 h 16.87878 z"
     id="path341"
     sodipodi:nodetypes="cccccc"
     style="stroke-width:0.421969" />
  <path
     d="m 513,-326.79347 33.75755,33.75755 60.68776,-60.68776 V -404.36 h -16.87878 z"
     id="path358"
     sodipodi:nodetypes="cccccc"
     style="stroke-width:0.421969" />
</svg>
